<svg width="22" height="24" viewBox="0 0 22 24" fill="none" xmlns="http://www.w3.org/2000/svg">
<path d="M14.2098 3.27006C15.5465 4.60836 16.3831 6.36507 16.5797 8.24633C16.7763 10.1276 16.321 12.0193 15.2898 13.6051C15.4698 13.7551 15.6198 13.9201 15.8298 14.0701C16.1298 14.3101 16.5348 14.6101 17.0448 14.9551C17.5548 15.3151 17.8848 15.5401 18.0348 15.6601C18.6648 16.1251 19.1298 16.5151 19.4448 16.8301C19.9248 17.3101 20.3448 17.8051 20.7048 18.3301C21.0798 18.8551 21.3648 19.3651 21.5898 19.8901C21.7998 20.4151 21.9048 20.9101 21.8598 21.3901C21.8298 21.8701 21.6498 22.2751 21.3198 22.6051C20.9898 22.9351 20.5848 23.1151 20.1048 23.1451C19.6398 23.1751 19.1298 23.0851 18.6198 22.8601C18.0948 22.6501 17.5698 22.3501 17.0598 21.9751C16.5348 21.6151 16.0398 21.1951 15.5598 20.7151C15.2448 20.4001 14.8548 19.9351 14.4048 19.3201C14.2548 19.1251 14.0298 18.7951 13.6998 18.3301C13.3698 17.8501 13.0998 17.4751 12.8598 17.1601C12.6198 16.8601 12.4248 16.6351 12.1998 16.4101C10.6429 17.2253 8.8664 17.5223 7.12895 17.2579C5.3915 16.9935 3.78378 16.1815 2.53982 14.9401C-0.670176 11.7151 -0.670176 6.48006 2.53982 3.27006C3.30576 2.50321 4.21534 1.89485 5.21655 1.47979C6.21777 1.06472 7.29098 0.851074 8.37482 0.851074C9.45867 0.851074 10.5319 1.06472 11.5331 1.47979C12.5343 1.89485 13.4439 2.50321 14.2098 3.27006ZM12.0948 12.8101C13.0748 11.823 13.6247 10.4885 13.6247 9.09756C13.6247 7.70665 13.0748 6.37215 12.0948 5.38506C11.6078 4.8966 11.0292 4.50905 10.3921 4.24461C9.75507 3.98018 9.07209 3.84406 8.38233 3.84406C7.69256 3.84406 7.00958 3.98018 6.37252 4.24461C5.73545 4.50905 5.15684 4.8966 4.66982 5.38506C4.18137 5.87207 3.79381 6.45069 3.52938 7.08775C3.26495 7.72481 3.12883 8.40779 3.12883 9.09756C3.12883 9.78732 3.26495 10.4703 3.52938 11.1074C3.79381 11.7444 4.18137 12.323 4.66982 12.8101C5.15684 13.2985 5.73545 13.6861 6.37252 13.9505C7.00958 14.2149 7.69256 14.3511 8.38233 14.3511C9.07209 14.3511 9.75507 14.2149 10.3921 13.9505C11.0292 13.6861 11.6078 13.2985 12.0948 12.8101Z" fill="#120D0A"/>
</svg>
